<svg width="65" height="16" viewBox="0 0 65 16" fill="none" xmlns="http://www.w3.org/2000/svg">
<path d="M9.74 10.5H3.42L2.04 15H0.6L4.22 3.3C4.51333 2.35333 4.82667 1.7 5.16 1.34C5.50667 0.966666 5.98 0.779999 6.58 0.779999C7.18 0.779999 7.65333 0.966666 8 1.34C8.34667 1.7 8.66667 2.35333 8.96 3.3L12.58 15H11.12L9.74 10.5ZM9.4 9.38L7.54 3.32C7.39333 2.86667 7.25333 2.55333 7.12 2.38C6.98667 2.20667 6.80667 2.12 6.58 2.12C6.36667 2.12 6.19333 2.20667 6.06 2.38C5.92667 2.55333 5.78667 2.86667 5.64 3.32L3.78 9.38H9.4ZM15.0836 0.999999H21.1636C22.3236 0.999999 23.2569 1.32 23.9636 1.96C24.6703 2.58667 25.0236 3.42 25.0236 4.46C25.0236 5.23333 24.8169 5.9 24.4036 6.46C23.9903 7.00667 23.4169 7.38667 22.6836 7.6C23.5503 7.81333 24.2236 8.23333 24.7036 8.86C25.1969 9.47333 25.4436 10.24 25.4436 11.16C25.4436 12.3467 25.0503 13.2867 24.2636 13.98C23.4769 14.66 22.4103 15 21.0636 15H15.0836V0.999999ZM21.0436 7.06C21.7903 7.06 22.3969 6.83333 22.8636 6.38C23.3436 5.91333 23.5836 5.32 23.5836 4.6C23.5836 3.85333 23.3503 3.26 22.8836 2.82C22.4303 2.38 21.8169 2.16 21.0436 2.16H16.5236V7.06H21.0436ZM20.7236 13.84C21.7903 13.84 22.6036 13.6 23.1636 13.12C23.7236 12.64 24.0036 11.9467 24.0036 11.04C24.0036 10.1333 23.7169 9.44 23.1436 8.96C22.5836 8.46667 21.7769 8.22 20.7236 8.22H16.5236V13.84H20.7236ZM33.343 15.22C31.5696 15.22 30.2096 14.7867 29.263 13.92C28.3163 13.04 27.843 11.7733 27.843 10.12V5.88C27.843 4.22667 28.3163 2.96667 29.263 2.1C30.2096 1.22 31.5696 0.779999 33.343 0.779999C35.1163 0.779999 36.4763 1.22 37.423 2.1C38.3696 2.96667 38.843 4.22667 38.843 5.88V10.12C38.843 11.7733 38.3696 13.04 37.423 13.92C36.4763 14.7867 35.1163 15.22 33.343 15.22ZM33.343 14.06C34.6496 14.06 35.6496 13.72 36.343 13.04C37.0496 12.36 37.403 11.3867 37.403 10.12V5.88C37.403 4.61333 37.0496 3.64 36.343 2.96C35.6496 2.28 34.6496 1.94 33.343 1.94C32.0363 1.94 31.0296 2.28 30.323 2.96C29.6296 3.64 29.283 4.61333 29.283 5.88V10.12C29.283 11.3867 29.6296 12.36 30.323 13.04C31.0296 13.72 32.0363 14.06 33.343 14.06ZM46.8367 15.22C45.1834 15.22 43.8834 14.8667 42.9367 14.16C42.0034 13.44 41.5367 12.4533 41.5367 11.2V0.999999H42.9767V11.2C42.9767 12.0933 43.3167 12.7933 43.9967 13.3C44.6767 13.8067 45.6234 14.06 46.8367 14.06C48.0501 14.06 48.9967 13.8067 49.6767 13.3C50.3567 12.7933 50.6967 12.0933 50.6967 11.2V0.999999H52.1367V11.2C52.1367 12.4533 51.6634 13.44 50.7167 14.16C49.7834 14.8667 48.4901 15.22 46.8367 15.22ZM58.6752 2.16H54.1352V0.999999H64.6552V2.16H60.1152V15H58.6752V2.16Z" fill="white" fill-opacity="0.8"/>
</svg>
