<svg width="87" height="20" viewBox="0 0 87 20" fill="none" xmlns="http://www.w3.org/2000/svg">
<g filter="url(#filter0_d_524_1002)">
<path d="M6.86 17C5.3 17 4.14 16.66 3.38 15.98C2.63333 15.2867 2.26 14.2333 2.26 12.82V7.18C2.26 5.76667 2.63333 4.72 3.38 4.04C4.14 3.34667 5.3 3 6.86 3H11.68V4.16H6.86C5.78 4.16 4.98 4.40667 4.46 4.9C3.95333 5.39333 3.7 6.15333 3.7 7.18V9.42H10.66V10.58H3.7V12.82C3.7 13.8467 3.95333 14.6067 4.46 15.1C4.98 15.5933 5.78 15.84 6.86 15.84H11.8V17H6.86ZM19.3592 10.04L24.0592 17H22.3992L18.4192 11.1L14.4392 17H12.7992L17.5992 9.88L12.9792 3H14.6192L18.5392 8.82L22.4592 3H24.0792L19.3592 10.04ZM26.0836 3H32.0236C33.3569 3 34.3703 3.34667 35.0636 4.04C35.7703 4.73333 36.1236 5.74 36.1236 7.06C36.1236 8.39333 35.7703 9.40667 35.0636 10.1C34.3703 10.7933 33.3569 11.14 32.0236 11.14H27.5236V17H26.0836V3ZM31.9036 9.98C32.7836 9.98 33.4636 9.72667 33.9436 9.22C34.4369 8.7 34.6836 7.98 34.6836 7.06C34.6836 6.15333 34.4369 5.44667 33.9436 4.94C33.4636 4.42 32.7836 4.16 31.9036 4.16H27.5236V9.98H31.9036ZM42.6427 17C41.1093 17 39.9693 16.66 39.2227 15.98C38.4893 15.2867 38.1227 14.2333 38.1227 12.82V3H39.5627V12.82C39.5627 13.8467 39.8093 14.6067 40.3027 15.1C40.8093 15.5933 41.5893 15.84 42.6427 15.84H47.1427V17H42.6427ZM54.0305 17.22C52.2571 17.22 50.8971 16.7867 49.9505 15.92C49.0038 15.04 48.5305 13.7733 48.5305 12.12V7.88C48.5305 6.22667 49.0038 4.96667 49.9505 4.1C50.8971 3.22 52.2571 2.78 54.0305 2.78C55.8038 2.78 57.1638 3.22 58.1105 4.1C59.0571 4.96667 59.5305 6.22667 59.5305 7.88V12.12C59.5305 13.7733 59.0571 15.04 58.1105 15.92C57.1638 16.7867 55.8038 17.22 54.0305 17.22ZM54.0305 16.06C55.3371 16.06 56.3371 15.72 57.0305 15.04C57.7371 14.36 58.0905 13.3867 58.0905 12.12V7.88C58.0905 6.61333 57.7371 5.64 57.0305 4.96C56.3371 4.28 55.3371 3.94 54.0305 3.94C52.7238 3.94 51.7171 4.28 51.0105 4.96C50.3171 5.64 49.9705 6.61333 49.9705 7.88V12.12C49.9705 13.3867 50.3171 14.36 51.0105 15.04C51.7171 15.72 52.7238 16.06 54.0305 16.06ZM73.2442 17H71.7042L70.7442 13.4C70.5576 12.7067 70.3442 12.1667 70.1042 11.78C69.8642 11.3933 69.5309 11.1133 69.1042 10.94C68.6909 10.7533 68.1242 10.66 67.4042 10.66H64.1642V17H62.7242V3H68.7242C70.0309 3 71.0242 3.32667 71.7042 3.98C72.3976 4.63333 72.7442 5.55333 72.7442 6.74C72.7442 7.74 72.5042 8.54 72.0242 9.14C71.5576 9.72667 70.8909 10.0933 70.0242 10.24C70.6109 10.4533 71.0642 10.8067 71.3842 11.3C71.7176 11.7933 72.0109 12.4933 72.2642 13.4L73.2442 17ZM68.5642 9.5C69.4309 9.5 70.1042 9.26667 70.5842 8.8C71.0642 8.33333 71.3042 7.68 71.3042 6.84C71.3042 5.98667 71.0642 5.32667 70.5842 4.86C70.1042 4.39333 69.4309 4.16 68.5642 4.16H64.1642V9.5H68.5642ZM79.9655 17C78.4055 17 77.2455 16.66 76.4855 15.98C75.7388 15.2867 75.3655 14.2333 75.3655 12.82V7.18C75.3655 5.76667 75.7388 4.72 76.4855 4.04C77.2455 3.34667 78.4055 3 79.9655 3H84.7855V4.16H79.9655C78.8855 4.16 78.0855 4.40667 77.5655 4.9C77.0588 5.39333 76.8055 6.15333 76.8055 7.18V9.42H83.7655V10.58H76.8055V12.82C76.8055 13.8467 77.0588 14.6067 77.5655 15.1C78.0855 15.5933 78.8855 15.84 79.9655 15.84H84.9055V17H79.9655Z" fill="white"/>
</g>
<defs>
<filter id="filter0_d_524_1002" x="0.26001" y="0.779999" width="86.6455" height="18.44" filterUnits="userSpaceOnUse" color-interpolation-filters="sRGB">
<feFlood flood-opacity="0" result="BackgroundImageFix"/>
<feColorMatrix in="SourceAlpha" type="matrix" values="0 0 0 0 0 0 0 0 0 0 0 0 0 0 0 0 0 0 127 0" result="hardAlpha"/>
<feOffset/>
<feGaussianBlur stdDeviation="1"/>
<feComposite in2="hardAlpha" operator="out"/>
<feColorMatrix type="matrix" values="0 0 0 0 1 0 0 0 0 1 0 0 0 0 1 0 0 0 0.25 0"/>
<feBlend mode="normal" in2="BackgroundImageFix" result="effect1_dropShadow_524_1002"/>
<feBlend mode="normal" in="SourceGraphic" in2="effect1_dropShadow_524_1002" result="shape"/>
</filter>
</defs>
</svg>
