<svg width="40" height="40" viewBox="0 0 40 40" fill="none" xmlns="http://www.w3.org/2000/svg">
<circle cx="20" cy="20" r="20" fill="#9FA6D2"/>
<path d="M36.6665 19.763C36.6665 28.8362 29.3111 36.1915 20.2379 36.1915C11.1646 36.1915 3.80933 28.8362 3.80933 19.763C3.80933 10.6897 11.1646 3.33438 20.2379 3.33438C29.3111 3.33438 36.6665 10.6897 36.6665 19.763Z" fill="#6679E5"/>
<path d="M31.7628 16.9881C31.7628 20.5972 28.837 23.523 25.2278 23.523C21.6187 23.523 18.6929 20.5972 18.6929 16.9881C18.6929 13.3789 21.6187 10.4531 25.2278 10.4531C28.837 10.4531 31.7628 13.3789 31.7628 16.9881Z" fill="#323D7C"/>
<path d="M16.0576 16.305C16.6468 16.8942 16.6468 17.8495 16.0576 18.4388C15.4684 19.028 14.5131 19.028 13.9238 18.4388C13.3346 17.8495 13.3346 16.8942 13.9238 16.305C14.5131 15.7157 15.4684 15.7157 16.0576 16.305Z" fill="#323D7C"/>
</svg>
