<svg width="164" height="26" viewBox="0 0 164 26" fill="none" xmlns="http://www.w3.org/2000/svg">
<g filter="url(#filter0_d_524_1010)">
<path d="M11.981 12.5645C12.9374 12.7531 13.6917 13.1639 14.244 13.797C14.8097 14.4301 15.0926 15.2046 15.0926 16.1206C15.0926 17.3868 14.6279 18.3903 13.6985 19.1312C12.769 19.8586 11.5096 20.2223 9.9201 20.2223C8.90985 20.2223 7.98714 20.0471 7.152 19.6969C6.31685 19.3467 5.62315 18.8483 5.07087 18.2017L5.87908 17.4137C6.97015 18.5587 8.33063 19.1312 9.96051 19.1312C11.1593 19.1312 12.0888 18.8685 12.7488 18.3432C13.4089 17.8044 13.7389 17.0501 13.7389 16.0802C13.7389 15.0969 13.3886 14.356 12.6882 13.8576C12.0012 13.3592 10.9775 13.1101 9.61703 13.1101C8.98393 13.1101 8.33737 13.1572 7.67733 13.2515L7.49549 12.3018C8.93679 12.2614 10.0817 12.1402 10.9304 11.9382C11.7924 11.7361 12.4121 11.4398 12.7892 11.0491C13.1799 10.645 13.3752 10.113 13.3752 9.45292C13.3752 8.59084 13.0654 7.92407 12.4457 7.45262C11.8396 6.96769 10.991 6.72523 9.8999 6.72523C8.36431 6.72523 7.14526 7.2573 6.24277 8.32144L5.576 7.392C6.10133 6.81279 6.73443 6.37501 7.47528 6.07867C8.21614 5.78233 9.03781 5.63416 9.94031 5.63416C11.422 5.63416 12.5872 5.95744 13.4358 6.604C14.2979 7.25057 14.7289 8.12612 14.7289 9.23067C14.7289 10.0658 14.4932 10.773 14.0217 11.3522C13.5503 11.9179 12.8701 12.3221 11.981 12.5645ZM18.3306 5.85641H23.3617C24.8434 5.85641 26.0153 6.0854 26.8774 6.54339C27.753 7.00137 28.3861 7.74222 28.7767 8.76595C29.1673 9.78968 29.3626 11.1771 29.3626 12.9282C29.3626 14.6928 29.1673 16.0869 28.7767 17.1107C28.3995 18.1209 27.7732 18.855 26.8976 19.313C26.0355 19.771 24.8569 20 23.3617 20H18.3306V5.85641ZM23.3617 18.8281C24.4797 18.8281 25.3688 18.6395 26.0288 18.2624C26.6888 17.8717 27.167 17.2521 27.4634 16.4035C27.7597 15.5414 27.9079 14.3897 27.9079 12.9484C27.9079 11.5071 27.753 10.3554 27.4432 9.49333C27.1468 8.63125 26.6686 8.00489 26.0086 7.61426C25.3486 7.22362 24.4663 7.02831 23.3617 7.02831H19.7854V18.8281H23.3617ZM37.5097 5.85641H38.3785C38.9712 5.85641 39.4494 5.99111 39.8131 6.26051C40.1903 6.51645 40.554 6.98116 40.9042 7.65467L43.8945 13.3727L46.8849 7.65467C47.2351 6.98116 47.5921 6.51645 47.9558 6.26051C48.3329 5.99111 48.8179 5.85641 49.4105 5.85641H50.2794V20H48.9054V7.31118C48.7168 7.33812 48.5485 7.41221 48.4003 7.53344C48.2656 7.6412 48.1242 7.83651 47.976 8.11939L43.8945 15.7973L39.8131 8.11939C39.6515 7.82304 39.5033 7.62099 39.3686 7.51323C39.2339 7.392 39.0723 7.32465 38.8837 7.31118V20H37.5097V5.85641ZM58.1243 20C56.5483 20 55.3764 19.6565 54.6086 18.9695C53.8543 18.2691 53.4771 17.205 53.4771 15.7771V10.0793C53.4771 8.65145 53.8543 7.59405 54.6086 6.90708C55.3764 6.20663 56.5483 5.85641 58.1243 5.85641H62.9938V7.02831H58.1243C57.0332 7.02831 56.225 7.27751 55.6997 7.7759C55.1878 8.27429 54.9319 9.04209 54.9319 10.0793V12.3423H61.9633V13.5142H54.9319V15.7771C54.9319 16.8143 55.1878 17.5821 55.6997 18.0805C56.225 18.5789 57.0332 18.8281 58.1243 18.8281H63.115V20H58.1243ZM69.2161 7.02831H64.6296V5.85641H75.2575V7.02831H70.6709V20H69.2161V7.02831ZM83.6897 15.4538H77.3048L75.9107 20H74.4559L78.113 8.18C78.4094 7.22362 78.7259 6.56359 79.0627 6.1999C79.4129 5.82274 79.8911 5.63416 80.4972 5.63416C81.1034 5.63416 81.5816 5.82274 81.9318 6.1999C82.282 6.56359 82.6053 7.22362 82.9017 8.18L86.5588 20H85.0838L83.6897 15.4538ZM83.3462 14.3224L81.4671 8.20021C81.3189 7.74222 81.1775 7.42568 81.0428 7.25056C80.9081 7.07545 80.7262 6.9879 80.4972 6.9879C80.2817 6.9879 80.1066 7.07545 79.9719 7.25056C79.8372 7.42568 79.6958 7.74222 79.5476 8.20021L77.6685 14.3224H83.3462ZM89.0881 5.85641H95.2304C96.4023 5.85641 97.3452 6.17969 98.0591 6.82626C98.773 7.45935 99.13 8.30123 99.13 9.3519C99.13 10.1332 98.9212 10.8067 98.5036 11.3724C98.0861 11.9247 97.5069 12.3086 96.766 12.5241C97.6416 12.7396 98.3218 13.1639 98.8067 13.797C99.3051 14.4167 99.5543 15.1912 99.5543 16.1206C99.5543 17.3195 99.1569 18.2691 98.3622 18.9695C97.5675 19.6565 96.4899 20 95.1294 20H89.0881V5.85641ZM95.1092 11.9786C95.8635 11.9786 96.4764 11.7496 96.9478 11.2916C97.4328 10.8201 97.6752 10.2207 97.6752 9.49333C97.6752 8.73901 97.4395 8.13959 96.9681 7.69508C96.5101 7.25057 95.8904 7.02831 95.1092 7.02831H90.5428V11.9786H95.1092ZM94.7859 18.8281C95.8635 18.8281 96.6852 18.5856 97.2509 18.1007C97.8167 17.6158 98.0995 16.9154 98.0995 15.9994C98.0995 15.0834 97.8099 14.383 97.2307 13.8981C96.665 13.3997 95.85 13.1505 94.7859 13.1505H90.5428V18.8281H94.7859ZM107.535 20.2223C105.743 20.2223 104.369 19.7845 103.413 18.9089C102.456 18.0199 101.978 16.7402 101.978 15.0699V10.7865C101.978 9.11617 102.456 7.84325 103.413 6.96769C104.369 6.07867 105.743 5.63416 107.535 5.63416C109.326 5.63416 110.7 6.07867 111.657 6.96769C112.613 7.84325 113.091 9.11617 113.091 10.7865V15.0699C113.091 16.7402 112.613 18.0199 111.657 18.9089C110.7 19.7845 109.326 20.2223 107.535 20.2223ZM107.535 19.0504C108.855 19.0504 109.865 18.7069 110.565 18.0199C111.279 17.3329 111.636 16.3496 111.636 15.0699V10.7865C111.636 9.5068 111.279 8.52349 110.565 7.83651C109.865 7.14954 108.855 6.80605 107.535 6.80605C106.215 6.80605 105.198 7.14954 104.484 7.83651C103.783 8.52349 103.433 9.5068 103.433 10.7865V15.0699C103.433 16.3496 103.783 17.3329 104.484 18.0199C105.198 18.7069 106.215 19.0504 107.535 19.0504ZM120.379 20C118.83 20 117.678 19.6565 116.924 18.9695C116.183 18.2691 115.812 17.205 115.812 15.7771V5.85641H117.267V15.7771C117.267 16.8143 117.516 17.5821 118.015 18.0805C118.527 18.5789 119.315 18.8281 120.379 18.8281H124.925V20H120.379ZM127.545 5.85641H129V20H127.545V5.85641ZM137.096 20.2223C135.857 20.2223 134.833 20.0404 134.025 19.6767C133.23 19.2996 132.496 18.6665 131.823 17.7774L132.813 16.9086C133.392 17.6899 133.991 18.2422 134.611 18.5654C135.244 18.8887 136.046 19.0504 137.015 19.0504C138.282 19.0504 139.258 18.8079 139.945 18.323C140.646 17.8381 140.996 17.1578 140.996 16.2823C140.996 15.73 140.868 15.2922 140.612 14.9689C140.356 14.6456 139.905 14.3695 139.258 14.1405C138.612 13.8981 137.655 13.6489 136.389 13.3929C135.002 13.1235 133.971 12.679 133.298 12.0594C132.638 11.4398 132.308 10.6114 132.308 9.57415C132.308 8.34838 132.745 7.38527 133.621 6.68482C134.51 5.98438 135.729 5.63416 137.278 5.63416C138.383 5.63416 139.339 5.82947 140.147 6.2201C140.955 6.59727 141.582 7.15627 142.026 7.89713L141.036 8.70533C140.619 8.08571 140.087 7.61426 139.44 7.29098C138.807 6.96769 138.073 6.80605 137.238 6.80605C136.174 6.80605 135.325 7.04851 134.692 7.53344C134.072 8.01836 133.762 8.67166 133.762 9.49333C133.762 10.2207 134.039 10.7999 134.591 11.231C135.143 11.6485 136.052 11.9853 137.318 12.2412C138.652 12.5106 139.682 12.8137 140.41 13.1505C141.151 13.4872 141.676 13.8981 141.986 14.383C142.296 14.8544 142.451 15.4741 142.451 16.2418C142.451 17.535 141.993 18.525 141.077 19.212C140.161 19.8855 138.834 20.2223 137.096 20.2223ZM145.323 5.85641H146.192C146.785 5.85641 147.263 5.99111 147.626 6.26051C148.004 6.51645 148.367 6.98116 148.717 7.65467L151.708 13.3727L154.698 7.65467C155.048 6.98116 155.405 6.51645 155.769 6.26051C156.146 5.99111 156.631 5.85641 157.224 5.85641H158.093V20H156.719V7.31118C156.53 7.33812 156.362 7.41221 156.214 7.53344C156.079 7.6412 155.937 7.83651 155.789 8.11939L151.708 15.7973L147.626 8.11939C147.465 7.82304 147.317 7.62099 147.182 7.51323C147.047 7.392 146.886 7.32465 146.697 7.31118V20H145.323V5.85641Z" fill="white"/>
</g>
<defs>
<filter id="filter0_d_524_1010" x="0.0708008" y="0.634155" width="163.022" height="24.5881" filterUnits="userSpaceOnUse" color-interpolation-filters="sRGB">
<feFlood flood-opacity="0" result="BackgroundImageFix"/>
<feColorMatrix in="SourceAlpha" type="matrix" values="0 0 0 0 0 0 0 0 0 0 0 0 0 0 0 0 0 0 127 0" result="hardAlpha"/>
<feOffset/>
<feGaussianBlur stdDeviation="2.5"/>
<feComposite in2="hardAlpha" operator="out"/>
<feColorMatrix type="matrix" values="0 0 0 0 1 0 0 0 0 1 0 0 0 0 1 0 0 0 0.81 0"/>
<feBlend mode="normal" in2="BackgroundImageFix" result="effect1_dropShadow_524_1010"/>
<feBlend mode="normal" in="SourceGraphic" in2="effect1_dropShadow_524_1010" result="shape"/>
</filter>
</defs>
</svg>
