<svg width="50" height="50" viewBox="0 0 50 50" fill="none" xmlns="http://www.w3.org/2000/svg">
<path d="M44.1377 40.0819L35.888 31.8414C37.9447 28.9724 39.048 25.5311 39.0427 22.0025C39.0427 17.4932 37.2494 13.1685 34.0572 9.97993C30.8651 6.79133 26.5357 5 22.0213 5C17.507 5 13.1776 6.79133 9.98544 9.97993C6.79332 13.1685 5 17.4932 5 22.0025C5 26.5119 6.79332 30.8366 9.98544 34.0252C13.1776 37.2138 17.507 39.0051 22.0213 39.0051C25.5573 39.0106 29.0061 37.9085 31.8824 35.854L40.098 44.1512C40.3611 44.4199 40.6753 44.6334 41.0222 44.7792C41.369 44.9249 41.7416 45 42.1179 45C42.4941 45 42.8667 44.9249 43.2135 44.7792C43.5604 44.6334 43.8746 44.4199 44.1377 44.1512C44.4105 43.887 44.6274 43.5708 44.7755 43.2213C44.9237 42.8718 45 42.4961 45 42.1166C45 41.737 44.9237 41.3614 44.7755 41.0118C44.6274 40.6623 44.4105 40.3461 44.1377 40.0819ZM10.6397 22.0025C10.6397 20.514 10.9333 19.0401 11.5035 17.6648C12.0738 16.2896 12.9096 15.04 13.9634 13.9875C15.0171 12.9349 16.268 12.1 17.6448 11.5303C19.0215 10.9607 20.4971 10.6675 21.9873 10.6675C23.4775 10.6675 24.9531 10.9607 26.3298 11.5303C27.7066 12.1 28.9575 12.9349 30.0112 13.9875C31.0649 15.04 31.9008 16.2896 32.4711 17.6648C33.0413 19.0401 33.3348 20.514 33.3348 22.0025C33.3348 25.0088 32.1393 27.8919 30.0112 30.0176C27.8831 32.1434 24.9968 33.3376 21.9873 33.3376C18.9777 33.3376 16.0914 32.1434 13.9634 30.0176C11.8353 27.8919 10.6397 25.0088 10.6397 22.0025Z" fill="white" fill-opacity="0.6"/>
</svg>
