<svg width="104" height="17" viewBox="0 0 104 17" fill="none" xmlns="http://www.w3.org/2000/svg">
<path d="M0.82 16H3.78V10.74H5.76C8.94 10.74 11.48 9.22 11.48 5.84C11.48 2.34 8.96 1.18 5.68 1.18H0.82V16ZM3.78 8.4V3.54H5.46C7.5 3.54 8.58 4.12 8.58 5.84C8.58 7.54 7.6 8.4 5.56 8.4H3.78ZM16.2666 8.28C16.7066 6.74 17.1466 5.06 17.5266 3.44H17.6266C18.0466 5.04 18.4466 6.74 18.9066 8.28L19.3466 9.9H15.8266L16.2666 8.28ZM11.1466 16H14.1466L15.1866 12.2H19.9866L21.0266 16H24.1266L19.3666 1.18H15.8866L11.1466 16ZM27.2561 16H30.2161V3.66H34.4161V1.18H23.0961V3.66H27.2561V16ZM36.8161 16H39.7761V9.6H45.3761V16H48.3161V1.18H45.3761V7.02H39.7761V1.18H36.8161V16ZM53.3528 16H56.9728L58.5928 8.68C58.8328 7.52 59.0328 6.38 59.2328 5.24H59.3128C59.4928 6.38 59.7128 7.52 59.9528 8.68L61.6128 16H65.2928L68.0328 1.18H65.2328L64.0528 8.42C63.8328 9.96 63.6128 11.54 63.3928 13.14H63.2928C62.9728 11.54 62.6728 9.94 62.3528 8.42L60.6528 1.18H58.1128L56.3928 8.42C56.0728 9.96 55.7528 11.54 55.4528 13.14H55.3728C55.1528 11.54 54.9128 9.98 54.6928 8.42L53.5128 1.18H50.5128L53.3528 16ZM73.4736 8.28C73.9136 6.74 74.3536 5.06 74.7336 3.44H74.8336C75.2536 5.04 75.6536 6.74 76.1136 8.28L76.5536 9.9H73.0336L73.4736 8.28ZM68.3536 16H71.3536L72.3936 12.2H77.1936L78.2336 16H81.3336L76.5736 1.18H73.0936L68.3536 16ZM85.195 16H88.155V10.58L92.615 1.18H89.535L88.055 4.8C87.635 5.9 87.195 6.94 86.735 8.08H86.655C86.195 6.94 85.795 5.9 85.375 4.8L83.895 1.18H80.755L85.195 10.58V16ZM98.3064 16.28C101.726 16.28 103.746 14.22 103.746 11.8C103.746 9.66 102.566 8.52 100.766 7.78L98.8264 6.96C97.5664 6.46 96.5264 6.08 96.5264 5.02C96.5264 4.04 97.3464 3.46 98.6464 3.46C99.8664 3.46 100.846 3.9 101.786 4.68L103.286 2.82C102.086 1.6 100.366 0.92 98.6464 0.92C95.6464 0.92 93.5264 2.78 93.5264 5.2C93.5264 7.36 95.0264 8.56 96.5264 9.18L98.5064 10.02C99.8264 10.58 100.726 10.92 100.726 12.02C100.726 13.06 99.9064 13.72 98.3664 13.72C97.0664 13.72 95.6664 13.06 94.6064 12.08L92.9064 14.12C94.3464 15.5 96.3264 16.28 98.3064 16.28Z" fill="white"/>
</svg>
