<svg width="271" height="12" viewBox="0 0 271 12" fill="none" xmlns="http://www.w3.org/2000/svg">
<path d="M0.0600001 9H3.98V8.48H0.66V1.71H0.0600001V9ZM7.14742 9.13C7.91742 9.13 8.41742 8.88 8.84742 8.61L8.62742 8.18C8.22742 8.46 7.77742 8.64 7.20742 8.64C6.05742 8.64 5.28742 7.73 5.25742 6.43H9.03742C9.05742 6.3 9.06742 6.16 9.06742 6.01C9.06742 4.45 8.29742 3.53 7.00742 3.53C5.80742 3.53 4.66742 4.61 4.66742 6.34C4.66742 8.09 5.77742 9.13 7.14742 9.13ZM5.25742 5.97C5.36742 4.75 6.14742 4.03 7.01742 4.03C7.94742 4.03 8.53742 4.68 8.53742 5.97H5.25742ZM10.5783 9H11.1583V4.16H12.3683V3.67H11.1583V2.58C11.1583 1.83 11.4083 1.41 11.9783 1.41C12.1783 1.41 12.3883 1.46 12.6083 1.56L12.7483 1.09C12.4983 0.989999 12.2183 0.92 11.9483 0.92C11.0483 0.92 10.5783 1.49 10.5783 2.55V3.67L9.83828 3.72V4.16H10.5783V9ZM14.9668 9.13C15.2068 9.13 15.5468 9.04 15.8568 8.93L15.7168 8.47C15.5268 8.56 15.2668 8.63 15.0668 8.63C14.3568 8.63 14.1768 8.19 14.1768 7.52V4.16H15.7068V3.67H14.1768V2.13H13.6868L13.6168 3.67L12.7668 3.72V4.16H13.5968V7.48C13.5968 8.47 13.9168 9.13 14.9668 9.13ZM16.1883 6.48H18.6483V5.99H16.1883V6.48ZM20.0684 9H20.6484V5.01C21.2084 4.37 21.7184 4.05 22.1884 4.05C22.9784 4.05 23.3384 4.56 23.3384 5.67V9H23.9184V5.01C24.4884 4.37 24.9784 4.05 25.4584 4.05C26.2384 4.05 26.6084 4.56 26.6084 5.67V9H27.1884V5.59C27.1884 4.22 26.6584 3.53 25.5884 3.53C24.9684 3.53 24.3884 3.96 23.7884 4.61C23.5984 3.96 23.1684 3.53 22.3184 3.53C21.7184 3.53 21.1184 3.95 20.6384 4.48H20.6184L20.5484 3.67H20.0684V9ZM31.0813 9.13C32.3713 9.13 33.4913 8.11 33.4913 6.34C33.4913 4.56 32.3713 3.53 31.0813 3.53C29.7913 3.53 28.6713 4.56 28.6713 6.34C28.6713 8.11 29.7913 9.13 31.0813 9.13ZM31.0813 8.63C30.0413 8.63 29.2813 7.7 29.2813 6.34C29.2813 4.98 30.0413 4.04 31.0813 4.04C32.1213 4.04 32.8913 4.98 32.8913 6.34C32.8913 7.7 32.1213 8.63 31.0813 8.63ZM36.5788 9.13C37.3188 9.13 37.8588 8.72 38.3788 8.12H38.4088L38.4588 9H38.9488V3.67H38.3688V7.57C37.7688 8.29 37.3288 8.61 36.7088 8.61C35.8888 8.61 35.5488 8.1 35.5488 7.01V3.67H34.9688V7.08C34.9688 8.45 35.4688 9.13 36.5788 9.13ZM42.2573 9.13C43.4373 9.13 44.0873 8.43 44.0873 7.61C44.0873 6.58 43.1873 6.29 42.3673 5.98C41.7473 5.75 41.1673 5.53 41.1673 4.94C41.1673 4.46 41.5273 4.02 42.3273 4.02C42.8473 4.02 43.2173 4.23 43.5773 4.5L43.8873 4.1C43.4973 3.78 42.9273 3.53 42.3373 3.53C41.2073 3.53 40.5873 4.19 40.5873 4.97C40.5873 5.89 41.4273 6.22 42.2173 6.5C42.8373 6.72 43.5073 7.01 43.5073 7.64C43.5073 8.19 43.0973 8.65 42.2873 8.65C41.5573 8.65 41.0673 8.36 40.6073 7.98L40.2973 8.4C40.7873 8.8 41.4773 9.13 42.2573 9.13ZM47.5088 9.13C48.2788 9.13 48.7788 8.88 49.2088 8.61L48.9888 8.18C48.5888 8.46 48.1388 8.64 47.5688 8.64C46.4188 8.64 45.6488 7.73 45.6188 6.43H49.3988C49.4188 6.3 49.4288 6.16 49.4288 6.01C49.4288 4.45 48.6588 3.53 47.3688 3.53C46.1688 3.53 45.0288 4.61 45.0288 6.34C45.0288 8.09 46.1388 9.13 47.5088 9.13ZM45.6188 5.97C45.7288 4.75 46.5088 4.03 47.3788 4.03C48.3088 4.03 48.8988 4.68 48.8988 5.97H45.6188ZM55.0664 9.13C55.7364 9.13 56.3064 8.84 56.7764 8.44L56.4864 8.04C56.1264 8.36 55.6464 8.63 55.0964 8.63C53.9764 8.63 53.2364 7.7 53.2364 6.34C53.2364 4.98 54.0464 4.04 55.1064 4.04C55.6064 4.04 55.9964 4.27 56.3264 4.58L56.6564 4.18C56.2864 3.85 55.8064 3.53 55.0964 3.53C53.7764 3.53 52.6264 4.56 52.6264 6.34C52.6264 8.11 53.6764 9.13 55.0664 9.13ZM58.7666 9.13C58.9566 9.13 59.0566 9.1 59.1566 9.07L59.0666 8.61C58.9566 8.63 58.9166 8.63 58.8766 8.63C58.7366 8.63 58.6366 8.52 58.6366 8.27V1.05H58.0566V8.21C58.0566 8.83 58.2866 9.13 58.7666 9.13ZM60.7227 9H61.3027V3.67H60.7227V9ZM61.0227 2.42C61.2827 2.42 61.4827 2.23 61.4827 1.93C61.4827 1.65 61.2827 1.47 61.0227 1.47C60.7527 1.47 60.5527 1.65 60.5527 1.93C60.5527 2.23 60.7527 2.42 61.0227 2.42ZM65.291 9.13C65.961 9.13 66.531 8.84 67.001 8.44L66.711 8.04C66.351 8.36 65.871 8.63 65.321 8.63C64.201 8.63 63.461 7.7 63.461 6.34C63.461 4.98 64.271 4.04 65.331 4.04C65.831 4.04 66.221 4.27 66.551 4.58L66.881 4.18C66.511 3.85 66.031 3.53 65.321 3.53C64.001 3.53 62.851 4.56 62.851 6.34C62.851 8.11 63.901 9.13 65.291 9.13ZM68.2813 9H68.8613V7.56L70.0113 6.2L71.7313 9H72.3713L70.3513 5.79L72.0913 3.67H71.4313L68.8813 6.81H68.8613V1.05H68.2813V9ZM77.1329 7.8H77.6429V5.58H79.6829V5.11H77.6429V2.89H77.1329V5.11H75.0829V5.58H77.1329V7.8ZM84.5913 9.13C85.7713 9.13 86.4213 8.43 86.4213 7.61C86.4213 6.58 85.5213 6.29 84.7013 5.98C84.0813 5.75 83.5013 5.53 83.5013 4.94C83.5013 4.46 83.8613 4.02 84.6613 4.02C85.1813 4.02 85.5513 4.23 85.9113 4.5L86.2213 4.1C85.8313 3.78 85.2613 3.53 84.6713 3.53C83.5413 3.53 82.9213 4.19 82.9213 4.97C82.9213 5.89 83.7613 6.22 84.5513 6.5C85.1713 6.72 85.8413 7.01 85.8413 7.64C85.8413 8.19 85.4313 8.65 84.6213 8.65C83.8913 8.65 83.4013 8.36 82.9412 7.98L82.6313 8.4C83.1213 8.8 83.8113 9.13 84.5913 9.13ZM87.8027 9H88.3827V5.01C89.0027 4.37 89.4427 4.05 90.0627 4.05C90.8827 4.05 91.2327 4.56 91.2327 5.67V9H91.8127V5.59C91.8127 4.22 91.3027 3.53 90.1927 3.53C89.4627 3.53 88.9127 3.95 88.3727 4.49L88.3827 3.33V1.05H87.8027V9ZM93.6914 9H94.2714V3.67H93.6914V9ZM93.9914 2.42C94.2514 2.42 94.4514 2.23 94.4514 1.93C94.4514 1.65 94.2514 1.47 93.9914 1.47C93.7214 1.47 93.5214 1.65 93.5214 1.93C93.5214 2.23 93.7214 2.42 93.9914 2.42ZM96.3498 9H96.9298V4.16H98.1398V3.67H96.9298V2.58C96.9298 1.83 97.1798 1.41 97.7498 1.41C97.9498 1.41 98.1598 1.46 98.3798 1.56L98.5198 1.09C98.2698 0.989999 97.9898 0.92 97.7198 0.92C96.8198 0.92 96.3498 1.49 96.3498 2.55V3.67L95.6098 3.72V4.16H96.3498V9ZM100.738 9.13C100.978 9.13 101.318 9.04 101.628 8.93L101.488 8.47C101.298 8.56 101.038 8.63 100.838 8.63C100.128 8.63 99.9483 8.19 99.9483 7.52V4.16H101.478V3.67H99.9483V2.13H99.4583L99.3883 3.67L98.5383 3.72V4.16H99.3683V7.48C99.3683 8.47 99.6883 9.13 100.738 9.13ZM106.281 9.13C107.461 9.13 108.111 8.43 108.111 7.61C108.111 6.58 107.211 6.29 106.391 5.98C105.771 5.75 105.191 5.53 105.191 4.94C105.191 4.46 105.551 4.02 106.351 4.02C106.871 4.02 107.241 4.23 107.601 4.5L107.911 4.1C107.521 3.78 106.951 3.53 106.361 3.53C105.231 3.53 104.611 4.19 104.611 4.97C104.611 5.89 105.451 6.22 106.241 6.5C106.861 6.72 107.531 7.01 107.531 7.64C107.531 8.19 107.121 8.65 106.311 8.65C105.581 8.65 105.091 8.36 104.631 7.98L104.321 8.4C104.811 8.8 105.501 9.13 106.281 9.13ZM111.532 9.13C112.302 9.13 112.802 8.88 113.232 8.61L113.012 8.18C112.612 8.46 112.162 8.64 111.592 8.64C110.442 8.64 109.672 7.73 109.642 6.43H113.422C113.442 6.3 113.452 6.16 113.452 6.01C113.452 4.45 112.682 3.53 111.392 3.53C110.192 3.53 109.052 4.61 109.052 6.34C109.052 8.09 110.162 9.13 111.532 9.13ZM109.642 5.97C109.752 4.75 110.532 4.03 111.402 4.03C112.332 4.03 112.922 4.68 112.922 5.97H109.642ZM115.583 9.13C115.773 9.13 115.873 9.1 115.973 9.07L115.883 8.61C115.773 8.63 115.733 8.63 115.693 8.63C115.553 8.63 115.453 8.52 115.453 8.27V1.05H114.873V8.21C114.873 8.83 115.103 9.13 115.583 9.13ZM119.579 9.13C120.349 9.13 120.849 8.88 121.279 8.61L121.059 8.18C120.659 8.46 120.209 8.64 119.639 8.64C118.489 8.64 117.719 7.73 117.689 6.43H121.469C121.489 6.3 121.499 6.16 121.499 6.01C121.499 4.45 120.729 3.53 119.439 3.53C118.239 3.53 117.099 4.61 117.099 6.34C117.099 8.09 118.209 9.13 119.579 9.13ZM117.689 5.97C117.799 4.75 118.579 4.03 119.449 4.03C120.379 4.03 120.969 4.68 120.969 5.97H117.689ZM124.92 9.13C125.59 9.13 126.16 8.84 126.63 8.44L126.34 8.04C125.98 8.36 125.5 8.63 124.95 8.63C123.83 8.63 123.09 7.7 123.09 6.34C123.09 4.98 123.9 4.04 124.96 4.04C125.46 4.04 125.85 4.27 126.18 4.58L126.51 4.18C126.14 3.85 125.66 3.53 124.95 3.53C123.63 3.53 122.48 4.56 122.48 6.34C122.48 8.11 123.53 9.13 124.92 9.13ZM129.303 9.13C129.543 9.13 129.883 9.04 130.193 8.93L130.053 8.47C129.863 8.56 129.603 8.63 129.403 8.63C128.693 8.63 128.513 8.19 128.513 7.52V4.16H130.043V3.67H128.513V2.13H128.023L127.953 3.67L127.103 3.72V4.16H127.933V7.48C127.933 8.47 128.253 9.13 129.303 9.13ZM135.035 9.13C135.275 9.13 135.615 9.04 135.925 8.93L135.785 8.47C135.595 8.56 135.335 8.63 135.135 8.63C134.425 8.63 134.245 8.19 134.245 7.52V4.16H135.775V3.67H134.245V2.13H133.755L133.685 3.67L132.835 3.72V4.16H133.665V7.48C133.665 8.47 133.985 9.13 135.035 9.13ZM138.894 9.13C140.184 9.13 141.304 8.11 141.304 6.34C141.304 4.56 140.184 3.53 138.894 3.53C137.604 3.53 136.484 4.56 136.484 6.34C136.484 8.11 137.604 9.13 138.894 9.13ZM138.894 8.63C137.854 8.63 137.094 7.7 137.094 6.34C137.094 4.98 137.854 4.04 138.894 4.04C139.934 4.04 140.704 4.98 140.704 6.34C140.704 7.7 139.934 8.63 138.894 8.63ZM145.078 9H145.658V5.01C146.278 4.37 146.718 4.05 147.338 4.05C148.158 4.05 148.508 4.56 148.508 5.67V9H149.088V5.59C149.088 4.22 148.578 3.53 147.468 3.53C146.738 3.53 146.188 3.95 145.648 4.49L145.658 3.33V1.05H145.078V9ZM150.967 9H151.547V3.67H150.967V9ZM151.267 2.42C151.527 2.42 151.727 2.23 151.727 1.93C151.727 1.65 151.527 1.47 151.267 1.47C150.997 1.47 150.797 1.65 150.797 1.93C150.797 2.23 150.997 2.42 151.267 2.42ZM155.285 11.54C156.845 11.54 157.845 10.66 157.845 9.73C157.845 8.88 157.275 8.5 156.065 8.5H154.945C154.175 8.5 153.945 8.21 153.945 7.83C153.945 7.49 154.145 7.27 154.365 7.09C154.605 7.23 154.935 7.31 155.225 7.31C156.275 7.31 157.105 6.53 157.105 5.43C157.105 4.89 156.875 4.43 156.555 4.15H157.755V3.67H155.935C155.765 3.6 155.515 3.53 155.225 3.53C154.175 3.53 153.315 4.31 153.315 5.42C153.315 6.06 153.655 6.59 153.995 6.87V6.91C153.755 7.09 153.405 7.44 153.405 7.9C153.405 8.32 153.615 8.6 153.885 8.76V8.81C153.395 9.14 153.085 9.61 153.085 10.08C153.085 10.98 153.955 11.54 155.285 11.54ZM155.225 6.87C154.515 6.87 153.895 6.29 153.895 5.42C153.895 4.54 154.495 4 155.225 4C155.945 4 156.545 4.54 156.545 5.42C156.545 6.29 155.925 6.87 155.225 6.87ZM155.355 11.1C154.265 11.1 153.635 10.66 153.635 10.01C153.635 9.65 153.835 9.26 154.295 8.94C154.565 9 154.845 9.03 154.965 9.03H156.055C156.845 9.03 157.265 9.24 157.265 9.81C157.265 10.45 156.515 11.1 155.355 11.1ZM158.965 9H159.545V5.01C160.165 4.37 160.605 4.05 161.225 4.05C162.045 4.05 162.395 4.56 162.395 5.67V9H162.975V5.59C162.975 4.22 162.465 3.53 161.355 3.53C160.625 3.53 160.075 3.95 159.535 4.49L159.545 3.33V1.05H158.965V9ZM165.564 9.13C165.754 9.13 165.854 9.1 165.954 9.07L165.864 8.61C165.754 8.63 165.714 8.63 165.674 8.63C165.534 8.63 165.434 8.52 165.434 8.27V1.05H164.854V8.21C164.854 8.83 165.084 9.13 165.564 9.13ZM167.52 9H168.1V3.67H167.52V9ZM167.82 2.42C168.08 2.42 168.28 2.23 168.28 1.93C168.28 1.65 168.08 1.47 167.82 1.47C167.55 1.47 167.35 1.65 167.35 1.93C167.35 2.23 167.55 2.42 167.82 2.42ZM171.838 11.54C173.398 11.54 174.398 10.66 174.398 9.73C174.398 8.88 173.828 8.5 172.618 8.5H171.498C170.728 8.5 170.498 8.21 170.498 7.83C170.498 7.49 170.698 7.27 170.918 7.09C171.158 7.23 171.488 7.31 171.778 7.31C172.828 7.31 173.658 6.53 173.658 5.43C173.658 4.89 173.428 4.43 173.108 4.15H174.308V3.67H172.488C172.318 3.6 172.068 3.53 171.778 3.53C170.728 3.53 169.868 4.31 169.868 5.42C169.868 6.06 170.208 6.59 170.548 6.87V6.91C170.308 7.09 169.958 7.44 169.958 7.9C169.958 8.32 170.168 8.6 170.438 8.76V8.81C169.948 9.14 169.638 9.61 169.638 10.08C169.638 10.98 170.508 11.54 171.838 11.54ZM171.778 6.87C171.068 6.87 170.448 6.29 170.448 5.42C170.448 4.54 171.048 4 171.778 4C172.498 4 173.098 4.54 173.098 5.42C173.098 6.29 172.478 6.87 171.778 6.87ZM171.908 11.1C170.818 11.1 170.188 10.66 170.188 10.01C170.188 9.65 170.388 9.26 170.848 8.94C171.118 9 171.398 9.03 171.518 9.03H172.608C173.398 9.03 173.818 9.24 173.818 9.81C173.818 10.45 173.068 11.1 171.908 11.1ZM175.518 9H176.098V5.01C176.718 4.37 177.158 4.05 177.778 4.05C178.598 4.05 178.948 4.56 178.948 5.67V9H179.528V5.59C179.528 4.22 179.018 3.53 177.908 3.53C177.178 3.53 176.628 3.95 176.088 4.49L176.098 3.33V1.05H175.518V9ZM182.906 9.13C183.146 9.13 183.486 9.04 183.796 8.93L183.656 8.47C183.466 8.56 183.206 8.63 183.006 8.63C182.296 8.63 182.116 8.19 182.116 7.52V4.16H183.646V3.67H182.116V2.13H181.626L181.556 3.67L180.706 3.72V4.16H181.536V7.48C181.536 8.47 181.856 9.13 182.906 9.13ZM187.139 9H187.719V5.01C188.279 4.37 188.789 4.05 189.259 4.05C190.049 4.05 190.409 4.56 190.409 5.67V9H190.989V5.01C191.559 4.37 192.049 4.05 192.529 4.05C193.309 4.05 193.679 4.56 193.679 5.67V9H194.259V5.59C194.259 4.22 193.729 3.53 192.659 3.53C192.039 3.53 191.459 3.96 190.859 4.61C190.669 3.96 190.239 3.53 189.389 3.53C188.789 3.53 188.189 3.95 187.709 4.48H187.689L187.619 3.67H187.139V9ZM197.712 9.13C198.452 9.13 198.992 8.72 199.512 8.12H199.542L199.592 9H200.082V3.67H199.502V7.57C198.902 8.29 198.462 8.61 197.842 8.61C197.022 8.61 196.682 8.1 196.682 7.01V3.67H196.102V7.08C196.102 8.45 196.602 9.13 197.712 9.13ZM202.79 9.13C202.98 9.13 203.08 9.1 203.18 9.07L203.09 8.61C202.98 8.63 202.94 8.63 202.9 8.63C202.76 8.63 202.66 8.52 202.66 8.27V1.05H202.08V8.21C202.08 8.83 202.31 9.13 202.79 9.13ZM206.246 9.13C206.486 9.13 206.826 9.04 207.136 8.93L206.996 8.47C206.806 8.56 206.546 8.63 206.346 8.63C205.636 8.63 205.456 8.19 205.456 7.52V4.16H206.986V3.67H205.456V2.13H204.966L204.896 3.67L204.046 3.72V4.16H204.876V7.48C204.876 8.47 205.196 9.13 206.246 9.13ZM208.262 9H208.842V3.67H208.262V9ZM208.562 2.42C208.822 2.42 209.022 2.23 209.022 1.93C209.022 1.65 208.822 1.47 208.562 1.47C208.292 1.47 208.092 1.65 208.092 1.93C208.092 2.23 208.292 2.42 208.562 2.42ZM210.83 11.38H211.41V9.46L211.4 8.48C211.94 8.9 212.47 9.13 212.97 9.13C214.22 9.13 215.32 8.07 215.32 6.25C215.32 4.61 214.6 3.53 213.18 3.53C212.53 3.53 211.92 3.92 211.4 4.32H211.38L211.31 3.67H210.83V11.38ZM212.92 8.62C212.53 8.62 211.98 8.45 211.41 7.97V4.89C212.03 4.34 212.56 4.04 213.07 4.04C214.26 4.04 214.7 4.97 214.7 6.25C214.7 7.68 213.96 8.62 212.92 8.62ZM217.595 9.13C217.785 9.13 217.885 9.1 217.985 9.07L217.895 8.61C217.785 8.63 217.745 8.63 217.705 8.63C217.565 8.63 217.465 8.52 217.465 8.27V1.05H216.885V8.21C216.885 8.83 217.115 9.13 217.595 9.13ZM221.591 9.13C222.361 9.13 222.861 8.88 223.291 8.61L223.071 8.18C222.671 8.46 222.221 8.64 221.651 8.64C220.501 8.64 219.731 7.73 219.701 6.43H223.481C223.501 6.3 223.511 6.16 223.511 6.01C223.511 4.45 222.741 3.53 221.451 3.53C220.251 3.53 219.111 4.61 219.111 6.34C219.111 8.09 220.221 9.13 221.591 9.13ZM219.701 5.97C219.811 4.75 220.591 4.03 221.461 4.03C222.391 4.03 222.981 4.68 222.981 5.97H219.701ZM227.148 11.38H227.728V9.46L227.718 8.48C228.258 8.9 228.788 9.13 229.288 9.13C230.538 9.13 231.638 8.07 231.638 6.25C231.638 4.61 230.918 3.53 229.498 3.53C228.848 3.53 228.238 3.92 227.718 4.32H227.698L227.628 3.67H227.148V11.38ZM229.238 8.62C228.848 8.62 228.298 8.45 227.728 7.97V4.89C228.348 4.34 228.878 4.04 229.388 4.04C230.578 4.04 231.018 4.97 231.018 6.25C231.018 7.68 230.278 8.62 229.238 8.62ZM234.217 9.13C234.897 9.13 235.537 8.76 236.077 8.32H236.097L236.157 9H236.647V5.62C236.647 4.44 236.197 3.53 234.927 3.53C234.057 3.53 233.317 3.95 232.907 4.23L233.167 4.65C233.537 4.37 234.147 4.04 234.847 4.04C235.857 4.04 236.087 4.86 236.067 5.65C233.717 5.92 232.667 6.48 232.667 7.66C232.667 8.65 233.357 9.13 234.217 9.13ZM234.337 8.64C233.747 8.64 233.247 8.36 233.247 7.63C233.247 6.81 233.967 6.32 236.067 6.08V7.81C235.437 8.36 234.927 8.64 234.337 8.64ZM239.879 9.13C240.119 9.13 240.459 9.04 240.769 8.93L240.629 8.47C240.439 8.56 240.179 8.63 239.979 8.63C239.269 8.63 239.089 8.19 239.089 7.52V4.16H240.619V3.67H239.089V2.13H238.599L238.529 3.67L237.679 3.72V4.16H238.509V7.48C238.509 8.47 238.829 9.13 239.879 9.13ZM241.895 9H242.475V5.01C243.095 4.37 243.535 4.05 244.155 4.05C244.975 4.05 245.325 4.56 245.325 5.67V9H245.905V5.59C245.905 4.22 245.395 3.53 244.285 3.53C243.555 3.53 243.005 3.95 242.465 4.49L242.475 3.33V1.05H241.895V9ZM248.603 9H249.303L250.173 5.81C250.343 5.29 250.463 4.79 250.583 4.26H250.633C250.783 4.79 250.883 5.28 251.033 5.79L251.933 9H252.683L254.183 3.67H253.613L252.703 7.03C252.573 7.54 252.453 8 252.333 8.48H252.293C252.153 8 252.033 7.54 251.903 7.03L250.953 3.67H250.313L249.363 7.03C249.233 7.53 249.113 8 248.983 8.48H248.933C248.833 8 248.713 7.54 248.593 7.03L247.663 3.67H247.043L248.603 9ZM256.512 9.13C257.192 9.13 257.832 8.76 258.372 8.32H258.392L258.452 9H258.942V5.62C258.942 4.44 258.492 3.53 257.222 3.53C256.352 3.53 255.612 3.95 255.202 4.23L255.462 4.65C255.832 4.37 256.442 4.04 257.142 4.04C258.152 4.04 258.382 4.86 258.362 5.65C256.012 5.92 254.962 6.48 254.962 7.66C254.962 8.65 255.652 9.13 256.512 9.13ZM256.632 8.64C256.042 8.64 255.542 8.36 255.542 7.63C255.542 6.81 256.262 6.32 258.362 6.08V7.81C257.732 8.36 257.222 8.64 256.632 8.64ZM260.651 11.4C261.631 11.4 262.181 10.54 262.491 9.62L264.571 3.67H263.981L262.891 6.93C262.741 7.39 262.571 7.95 262.411 8.43H262.361C262.171 7.95 261.971 7.39 261.801 6.93L260.561 3.67H259.931L262.111 9.08L261.971 9.53C261.711 10.3 261.281 10.88 260.641 10.88C260.491 10.88 260.321 10.84 260.211 10.8L260.081 11.29C260.231 11.36 260.441 11.4 260.651 11.4ZM267.013 9.13C268.193 9.13 268.843 8.43 268.843 7.61C268.843 6.58 267.943 6.29 267.123 5.98C266.503 5.75 265.923 5.53 265.923 4.94C265.923 4.46 266.283 4.02 267.083 4.02C267.603 4.02 267.973 4.23 268.333 4.5L268.643 4.1C268.253 3.78 267.683 3.53 267.093 3.53C265.963 3.53 265.343 4.19 265.343 4.97C265.343 5.89 266.183 6.22 266.973 6.5C267.593 6.72 268.263 7.01 268.263 7.64C268.263 8.19 267.853 8.65 267.043 8.65C266.313 8.65 265.823 8.36 265.363 7.98L265.053 8.4C265.543 8.8 266.233 9.13 267.013 9.13ZM270.475 9.13C270.745 9.13 270.985 8.92 270.985 8.59C270.985 8.25 270.745 8.04 270.475 8.04C270.205 8.04 269.965 8.25 269.965 8.59C269.965 8.92 270.205 9.13 270.475 9.13Z" fill="white"/>
</svg>
