<svg width="173" height="40" viewBox="0 0 173 40" fill="none" xmlns="http://www.w3.org/2000/svg">
<rect x="0.5" y="0.5" width="172" height="39" rx="9.5" stroke="white"/>
<path d="M17.4707 26H19.3307V19.78H21.9707L25.5307 26H27.6307L23.8707 19.58C25.8707 19.1 27.1907 17.74 27.1907 15.46C27.1907 12.4 25.0507 11.32 22.0707 11.32H17.4707V26ZM19.3307 18.28V12.84H21.7907C24.0907 12.84 25.3507 13.52 25.3507 15.46C25.3507 17.36 24.0907 18.28 21.7907 18.28H19.3307ZM34.1907 26.26C35.6707 26.26 36.8307 25.76 37.7907 25.14L37.1307 23.94C36.3307 24.48 35.4707 24.8 34.4107 24.8C32.3507 24.8 30.9307 23.32 30.8107 21H38.1307C38.1707 20.74 38.2107 20.36 38.2107 19.96C38.2107 16.86 36.6507 14.86 33.8907 14.86C31.3707 14.86 28.9907 17.06 28.9907 20.58C28.9907 24.16 31.3107 26.26 34.1907 26.26ZM30.7907 19.68C31.0107 17.56 32.3707 16.32 33.9107 16.32C35.6107 16.32 36.6107 17.5 36.6107 19.68H30.7907ZM43.7249 26.26C46.2849 26.26 47.6849 24.8 47.6849 23.04C47.6849 20.98 45.9449 20.34 44.3649 19.74C43.1449 19.28 42.0249 18.9 42.0249 17.86C42.0249 17.02 42.6649 16.3 44.0449 16.3C45.0049 16.3 45.7649 16.7 46.5049 17.26L47.3849 16.08C46.5449 15.42 45.3649 14.86 44.0249 14.86C41.6649 14.86 40.2649 16.22 40.2649 17.94C40.2649 19.78 41.9249 20.52 43.4449 21.08C44.6449 21.54 45.9249 22.02 45.9249 23.14C45.9249 24.08 45.2249 24.84 43.7849 24.84C42.4849 24.84 41.5049 24.32 40.5649 23.56L39.6649 24.76C40.7049 25.62 42.1849 26.26 43.7249 26.26ZM54.6204 26.26C56.1004 26.26 57.2604 25.76 58.2204 25.14L57.5604 23.94C56.7604 24.48 55.9004 24.8 54.8404 24.8C52.7804 24.8 51.3604 23.32 51.2404 21H58.5604C58.6004 20.74 58.6404 20.36 58.6404 19.96C58.6404 16.86 57.0804 14.86 54.3204 14.86C51.8004 14.86 49.4204 17.06 49.4204 20.58C49.4204 24.16 51.7404 26.26 54.6204 26.26ZM51.2204 19.68C51.4404 17.56 52.8004 16.32 54.3404 16.32C56.0404 16.32 57.0404 17.5 57.0404 19.68H51.2204ZM64.5198 26.26C65.1798 26.26 65.8998 26.06 66.5198 25.86L66.1598 24.5C65.7998 24.64 65.2998 24.78 64.9198 24.78C63.6598 24.78 63.2398 24.02 63.2398 22.68V16.62H66.1798V15.14H63.2398V12.08H61.7198L61.4998 15.14L59.7998 15.24V16.62H61.4198V22.64C61.4198 24.8 62.1998 26.26 64.5198 26.26ZM73.2715 26H75.1315V20.18H77.5515C80.7715 20.18 82.9515 18.74 82.9515 15.64C82.9515 12.44 80.7515 11.32 77.4715 11.32H73.2715V26ZM75.1315 18.68V12.84H77.2315C79.8115 12.84 81.1115 13.52 81.1115 15.64C81.1115 17.74 79.8915 18.68 77.3115 18.68H75.1315ZM87.2912 26.26C88.6312 26.26 89.8512 25.56 90.8912 24.7H90.9512L91.1112 26H92.6112V19.32C92.6112 16.64 91.4912 14.86 88.8512 14.86C87.1112 14.86 85.5712 15.64 84.5712 16.28L85.2912 17.54C86.1512 16.96 87.2912 16.38 88.5512 16.38C90.3312 16.38 90.7912 17.72 90.7912 19.12C86.1712 19.64 84.1112 20.82 84.1112 23.18C84.1112 25.14 85.4712 26.26 87.2912 26.26ZM87.8112 24.8C86.7312 24.8 85.8912 24.3 85.8912 23.06C85.8912 21.66 87.1312 20.76 90.7912 20.32V23.36C89.7312 24.3 88.8712 24.8 87.8112 24.8ZM99.2073 26.26C99.8673 26.26 100.587 26.06 101.207 25.86L100.847 24.5C100.487 24.64 99.9873 24.78 99.6073 24.78C98.3473 24.78 97.9273 24.02 97.9273 22.68V16.62H100.867V15.14H97.9273V12.08H96.4073L96.1873 15.14L94.4873 15.24V16.62H96.1073V22.64C96.1073 24.8 96.8873 26.26 99.2073 26.26ZM103.326 26H105.146V18.12C106.246 17.02 107.006 16.46 108.126 16.46C109.566 16.46 110.186 17.32 110.186 19.36V26H112.006V19.12C112.006 16.34 110.966 14.86 108.686 14.86C107.206 14.86 106.086 15.68 105.086 16.68L105.146 14.44V10.08H103.326V26ZM117.195 26H119.335L120.855 20.18C121.135 19.14 121.355 18.12 121.595 17.02H121.695C121.955 18.12 122.155 19.12 122.435 20.14L124.015 26H126.215L129.135 15.14H127.415L125.815 21.42C125.575 22.46 125.375 23.44 125.135 24.46H125.055C124.795 23.44 124.555 22.46 124.295 21.42L122.595 15.14H120.815L119.135 21.42C118.855 22.44 118.635 23.44 118.395 24.46H118.295C118.095 23.44 117.875 22.46 117.655 21.42L116.035 15.14H114.175L117.195 26ZM133.795 26.26C135.135 26.26 136.355 25.56 137.395 24.7H137.455L137.615 26H139.115V19.32C139.115 16.64 137.995 14.86 135.355 14.86C133.615 14.86 132.075 15.64 131.075 16.28L131.795 17.54C132.655 16.96 133.795 16.38 135.055 16.38C136.835 16.38 137.295 17.72 137.295 19.12C132.675 19.64 130.615 20.82 130.615 23.18C130.615 25.14 131.975 26.26 133.795 26.26ZM134.315 24.8C133.235 24.8 132.395 24.3 132.395 23.06C132.395 21.66 133.635 20.76 137.295 20.32V23.36C136.235 24.3 135.375 24.8 134.315 24.8ZM142.764 30.68C144.924 30.68 146.064 29.04 146.804 26.9L150.904 15.14H149.124L147.184 21.18C146.884 22.14 146.564 23.24 146.264 24.22H146.164C145.824 23.24 145.444 22.12 145.124 21.18L142.904 15.14H141.004L145.364 26.02L145.124 26.84C144.684 28.18 143.904 29.18 142.664 29.18C142.384 29.18 142.064 29.08 141.844 29L141.484 30.46C141.824 30.6 142.244 30.68 142.764 30.68ZM155.854 26.26C158.414 26.26 159.814 24.8 159.814 23.04C159.814 20.98 158.074 20.34 156.494 19.74C155.274 19.28 154.154 18.9 154.154 17.86C154.154 17.02 154.794 16.3 156.174 16.3C157.134 16.3 157.894 16.7 158.634 17.26L159.514 16.08C158.674 15.42 157.494 14.86 156.154 14.86C153.794 14.86 152.394 16.22 152.394 17.94C152.394 19.78 154.054 20.52 155.574 21.08C156.774 21.54 158.054 22.02 158.054 23.14C158.054 24.08 157.354 24.84 155.914 24.84C154.614 24.84 153.634 24.32 152.694 23.56L151.794 24.76C152.834 25.62 154.314 26.26 155.854 26.26Z" fill="white"/>
</svg>
