<svg width="60" height="60" viewBox="0 0 60 60" fill="none" xmlns="http://www.w3.org/2000/svg">
<circle cx="30" cy="30" r="30" fill="white" fill-opacity="0.9"/>
<path d="M50.1872 26.8895H48.111C47.6672 24.2682 46.6356 21.7814 45.0935 19.6157L46.6739 18.0354C46.8414 17.8681 46.9742 17.6695 47.0649 17.4508C47.1556 17.2322 47.2022 16.9978 47.2022 16.7611C47.2022 16.5244 47.1556 16.2901 47.0649 16.0714C46.9742 15.8528 46.8414 15.6541 46.6739 15.4868L44.7371 13.5503C44.5699 13.3828 44.3712 13.2499 44.1525 13.1593C43.9339 13.0686 43.6995 13.022 43.4627 13.022C43.226 13.022 42.9916 13.0686 42.773 13.1593C42.5543 13.2499 42.3556 13.3828 42.1884 13.5503L40.5615 15.177C38.4331 13.727 36.0117 12.763 33.4691 12.3534V9.80102C33.4691 9.32336 33.2793 8.86527 32.9415 8.52751C32.6037 8.18975 32.1456 8 31.6679 8H29.3205C28.8428 8 28.3847 8.18975 28.0469 8.52751C27.7091 8.86527 27.5193 9.32336 27.5193 9.80102V12.4038C25.2217 12.8082 23.0271 13.6638 21.0622 14.9214L19.474 13.3334C19.1352 12.997 18.6771 12.8083 18.1996 12.8083C17.7222 12.8083 17.2641 12.997 16.9252 13.3334L15.2635 14.995C14.9271 15.3338 14.7384 15.7918 14.7384 16.2692C14.7384 16.7466 14.9271 17.2047 15.2635 17.5435L16.6541 18.9301C14.829 21.2454 13.6155 23.9825 13.1253 26.8895H10.8012C10.3231 26.8905 9.865 27.0811 9.52733 27.4195C9.18965 27.7579 9 28.2164 9 28.6944V31.0415C9 31.278 9.04659 31.5122 9.13711 31.7307C9.22763 31.9493 9.36031 32.1478 9.52756 32.315C9.69482 32.4823 9.89337 32.6149 10.1119 32.7055C10.3304 32.796 10.5647 32.8426 10.8012 32.8426H13.1253C13.5129 35.0925 14.3366 37.2451 15.5501 39.1791C15.4331 39.2496 15.3251 39.3341 15.2286 39.4308L13.5669 41.0924C13.3994 41.2597 13.2665 41.4583 13.1759 41.677C13.0852 41.8956 13.0386 42.13 13.0386 42.3667C13.0386 42.6034 13.0852 42.8378 13.1759 43.0564C13.2665 43.2751 13.3994 43.4737 13.5669 43.641L15.5037 45.5776C15.6709 45.745 15.8696 45.8779 16.0883 45.9685C16.3069 46.0592 16.5413 46.1058 16.778 46.1058C17.0148 46.1058 17.2491 46.0592 17.4678 45.9685C17.6865 45.8779 17.8851 45.745 18.0524 45.5776L19.7142 43.916L19.7568 43.8695C21.9751 45.6016 24.5756 46.7782 27.3411 47.3011V49.199C27.3422 49.677 27.5328 50.1351 27.8712 50.4727C28.2096 50.8104 28.6681 51 29.1462 51H31.4936C31.9713 51 32.4294 50.8103 32.7672 50.4725C33.105 50.1347 33.2947 49.6766 33.2947 49.199V47.4173C35.7813 47.0466 38.1592 46.1458 40.2671 44.7758C40.3456 44.9187 40.4448 45.0492 40.5615 45.1631L42.4982 47.0997C42.8371 47.436 43.2952 47.6248 43.7726 47.6248C44.2501 47.6248 44.7082 47.436 45.047 47.0997L46.7088 45.4381C46.8762 45.2709 47.0091 45.0722 47.0998 44.8536C47.1904 44.6349 47.2371 44.4005 47.2371 44.1638C47.2371 43.9272 47.1904 43.6928 47.0998 43.4741C47.0091 43.2555 46.8762 43.0568 46.7088 42.8896L44.772 40.953C44.7188 40.8939 44.6619 40.8383 44.6016 40.7864C46.4211 38.4702 47.6316 35.7351 48.1226 32.8309H50.1988C50.6765 32.8309 51.1347 32.6412 51.4724 32.3034C51.8102 31.9657 52 31.5076 52 31.0299V28.6828C51.9969 28.2047 51.8043 27.7475 51.4645 27.4113C51.1246 27.0751 50.6653 26.8874 50.1872 26.8895ZM30.6259 38.3541C28.9463 38.3548 27.3041 37.8575 25.9072 36.9249C24.5103 35.9923 23.4214 34.6664 22.7783 33.1148C22.1352 31.5633 21.9667 29.856 22.2942 28.2087C22.6217 26.5615 23.4304 25.0483 24.6181 23.8607C25.8058 22.6732 27.3191 21.8645 28.9665 21.537C30.6139 21.2096 32.3214 21.378 33.8731 22.0211C35.4247 22.6641 36.7508 23.7529 37.6834 25.1497C38.6161 26.5465 39.1135 28.1885 39.1128 29.868C39.1128 32.1186 38.2186 34.2771 36.627 35.8685C35.0354 37.46 32.8768 38.3541 30.6259 38.3541Z" fill="#536DFE"/>
</svg>
